<mxfile host="app.diagrams.net" agent="Mozilla/5.0 (Windows NT 10.0; Win64; x64) AppleWebKit/537.36 (KHTML, like Gecko) Chrome/130.0.0.0 Safari/537.36" version="24.7.17">
  <diagram name="Page-1" id="fCFc7pycrOQo_hTFgm1E">
    <mxGraphModel grid="1" page="1" gridSize="10" guides="1" tooltips="1" connect="1" arrows="1" fold="1" pageScale="1" pageWidth="850" pageHeight="1100" math="0" shadow="0">
      <root>
        <mxCell id="0" />
        <mxCell id="1" parent="0" />
        <mxCell id="YPCTvVwg8Ye1CtPyyY5h-13" style="rounded=0;orthogonalLoop=1;jettySize=auto;html=1;exitX=0;exitY=0.5;exitDx=0;exitDy=0;entryX=1;entryY=0.5;entryDx=0;entryDy=0;endArrow=none;endFill=0;" edge="1" parent="1" source="YPCTvVwg8Ye1CtPyyY5h-1" target="YPCTvVwg8Ye1CtPyyY5h-11">
          <mxGeometry relative="1" as="geometry" />
        </mxCell>
        <mxCell id="YPCTvVwg8Ye1CtPyyY5h-69" style="rounded=0;orthogonalLoop=1;jettySize=auto;html=1;exitX=0.75;exitY=1;exitDx=0;exitDy=0;entryX=0.5;entryY=0;entryDx=0;entryDy=0;endArrow=none;endFill=0;" edge="1" parent="1" source="YPCTvVwg8Ye1CtPyyY5h-1" target="YPCTvVwg8Ye1CtPyyY5h-66">
          <mxGeometry relative="1" as="geometry" />
        </mxCell>
        <mxCell id="YPCTvVwg8Ye1CtPyyY5h-73" style="rounded=0;orthogonalLoop=1;jettySize=auto;html=1;exitX=1;exitY=0.5;exitDx=0;exitDy=0;entryX=0;entryY=0.5;entryDx=0;entryDy=0;endArrow=none;endFill=0;" edge="1" parent="1" source="YPCTvVwg8Ye1CtPyyY5h-1" target="YPCTvVwg8Ye1CtPyyY5h-71">
          <mxGeometry relative="1" as="geometry" />
        </mxCell>
        <mxCell id="YPCTvVwg8Ye1CtPyyY5h-79" style="rounded=0;orthogonalLoop=1;jettySize=auto;html=1;exitX=0.75;exitY=0;exitDx=0;exitDy=0;endArrow=none;endFill=0;" edge="1" parent="1" source="YPCTvVwg8Ye1CtPyyY5h-1">
          <mxGeometry relative="1" as="geometry">
            <mxPoint x="500" y="200" as="targetPoint" />
          </mxGeometry>
        </mxCell>
        <mxCell id="4CRClZlHs79rL-Ye6-aN-5" style="rounded=0;orthogonalLoop=1;jettySize=auto;html=1;exitX=0;exitY=0;exitDx=0;exitDy=0;entryX=1;entryY=0.5;entryDx=0;entryDy=0;endArrow=none;endFill=0;" edge="1" parent="1" source="YPCTvVwg8Ye1CtPyyY5h-1" target="4CRClZlHs79rL-Ye6-aN-1">
          <mxGeometry relative="1" as="geometry" />
        </mxCell>
        <mxCell id="YPCTvVwg8Ye1CtPyyY5h-1" value="User" style="rounded=0;whiteSpace=wrap;html=1;" vertex="1" parent="1">
          <mxGeometry x="360" y="310" width="120" height="60" as="geometry" />
        </mxCell>
        <mxCell id="YPCTvVwg8Ye1CtPyyY5h-5" style="rounded=0;orthogonalLoop=1;jettySize=auto;html=1;exitX=1;exitY=1;exitDx=0;exitDy=0;entryX=0.25;entryY=0;entryDx=0;entryDy=0;endArrow=none;endFill=0;" edge="1" parent="1" source="YPCTvVwg8Ye1CtPyyY5h-3" target="YPCTvVwg8Ye1CtPyyY5h-1">
          <mxGeometry relative="1" as="geometry">
            <mxPoint x="350.251262658471" y="255.85786437626928" as="targetPoint" />
          </mxGeometry>
        </mxCell>
        <mxCell id="YPCTvVwg8Ye1CtPyyY5h-3" value="Email" style="ellipse;whiteSpace=wrap;html=1;fontStyle=4" vertex="1" parent="1">
          <mxGeometry x="310" y="200" width="60" height="30" as="geometry" />
        </mxCell>
        <mxCell id="YPCTvVwg8Ye1CtPyyY5h-6" style="rounded=0;orthogonalLoop=1;jettySize=auto;html=1;exitX=0;exitY=1;exitDx=0;exitDy=0;entryX=0.5;entryY=0;entryDx=0;entryDy=0;endArrow=none;endFill=0;" edge="1" parent="1" source="YPCTvVwg8Ye1CtPyyY5h-4" target="YPCTvVwg8Ye1CtPyyY5h-1">
          <mxGeometry relative="1" as="geometry">
            <mxPoint x="399.748737341529" y="255.85786437626894" as="targetPoint" />
          </mxGeometry>
        </mxCell>
        <mxCell id="YPCTvVwg8Ye1CtPyyY5h-4" value="Encrypted Password" style="ellipse;whiteSpace=wrap;html=1;" vertex="1" parent="1">
          <mxGeometry x="385" y="180" width="80" height="50" as="geometry" />
        </mxCell>
        <mxCell id="YPCTvVwg8Ye1CtPyyY5h-9" style="rounded=0;orthogonalLoop=1;jettySize=auto;html=1;exitX=0.5;exitY=0;exitDx=0;exitDy=0;entryX=0.25;entryY=1;entryDx=0;entryDy=0;endArrow=none;endFill=0;" edge="1" parent="1" source="YPCTvVwg8Ye1CtPyyY5h-8" target="YPCTvVwg8Ye1CtPyyY5h-1">
          <mxGeometry relative="1" as="geometry" />
        </mxCell>
        <mxCell id="YPCTvVwg8Ye1CtPyyY5h-8" value="Business Name" style="ellipse;whiteSpace=wrap;html=1;" vertex="1" parent="1">
          <mxGeometry x="370" y="400" width="70" height="46.67" as="geometry" />
        </mxCell>
        <mxCell id="YPCTvVwg8Ye1CtPyyY5h-15" style="rounded=0;orthogonalLoop=1;jettySize=auto;html=1;exitX=0;exitY=0.5;exitDx=0;exitDy=0;entryX=1;entryY=0.5;entryDx=0;entryDy=0;endArrow=none;endFill=0;shape=link;" edge="1" parent="1" source="YPCTvVwg8Ye1CtPyyY5h-11" target="YPCTvVwg8Ye1CtPyyY5h-14">
          <mxGeometry relative="1" as="geometry" />
        </mxCell>
        <mxCell id="YPCTvVwg8Ye1CtPyyY5h-11" value="" style="rhombus;whiteSpace=wrap;html=1;" vertex="1" parent="1">
          <mxGeometry x="250" y="300" width="80" height="80" as="geometry" />
        </mxCell>
        <mxCell id="YPCTvVwg8Ye1CtPyyY5h-12" value="Buys" style="rhombus;whiteSpace=wrap;html=1;" vertex="1" parent="1">
          <mxGeometry x="255" y="305" width="70" height="70" as="geometry" />
        </mxCell>
        <mxCell id="YPCTvVwg8Ye1CtPyyY5h-106" style="rounded=0;orthogonalLoop=1;jettySize=auto;html=1;exitX=1;exitY=1;exitDx=0;exitDy=0;entryX=0.5;entryY=0;entryDx=0;entryDy=0;endArrow=none;endFill=0;shape=link;" edge="1" parent="1" source="YPCTvVwg8Ye1CtPyyY5h-14" target="YPCTvVwg8Ye1CtPyyY5h-104">
          <mxGeometry relative="1" as="geometry" />
        </mxCell>
        <mxCell id="YPCTvVwg8Ye1CtPyyY5h-14" value="Transactions" style="rounded=0;whiteSpace=wrap;html=1;" vertex="1" parent="1">
          <mxGeometry x="90" y="310" width="120" height="60" as="geometry" />
        </mxCell>
        <mxCell id="YPCTvVwg8Ye1CtPyyY5h-27" style="rounded=0;orthogonalLoop=1;jettySize=auto;html=1;exitX=0;exitY=1;exitDx=0;exitDy=0;entryX=1;entryY=0;entryDx=0;entryDy=0;endArrow=none;endFill=0;" edge="1" parent="1" source="YPCTvVwg8Ye1CtPyyY5h-25" target="YPCTvVwg8Ye1CtPyyY5h-122">
          <mxGeometry relative="1" as="geometry" />
        </mxCell>
        <mxCell id="YPCTvVwg8Ye1CtPyyY5h-25" value="DateTime" style="ellipse;whiteSpace=wrap;html=1;" vertex="1" parent="1">
          <mxGeometry x="125" y="152.5" width="80" height="50" as="geometry" />
        </mxCell>
        <mxCell id="YPCTvVwg8Ye1CtPyyY5h-26" value="Purchase" style="rounded=0;whiteSpace=wrap;html=1;" vertex="1" parent="1">
          <mxGeometry x="95" y="315" width="110" height="50" as="geometry" />
        </mxCell>
        <mxCell id="YPCTvVwg8Ye1CtPyyY5h-111" style="rounded=0;orthogonalLoop=1;jettySize=auto;html=1;exitX=0.5;exitY=1;exitDx=0;exitDy=0;entryX=0.292;entryY=0.146;entryDx=0;entryDy=0;entryPerimeter=0;endArrow=none;endFill=0;" edge="1" parent="1" source="YPCTvVwg8Ye1CtPyyY5h-30" target="YPCTvVwg8Ye1CtPyyY5h-122">
          <mxGeometry relative="1" as="geometry" />
        </mxCell>
        <mxCell id="YPCTvVwg8Ye1CtPyyY5h-30" value="Location" style="ellipse;whiteSpace=wrap;html=1;" vertex="1" parent="1">
          <mxGeometry x="27.5" y="142.5" width="80" height="50" as="geometry" />
        </mxCell>
        <mxCell id="YPCTvVwg8Ye1CtPyyY5h-107" style="rounded=0;orthogonalLoop=1;jettySize=auto;html=1;entryX=0.25;entryY=1;entryDx=0;entryDy=0;endArrow=none;endFill=0;" edge="1" parent="1" source="YPCTvVwg8Ye1CtPyyY5h-35" target="YPCTvVwg8Ye1CtPyyY5h-14">
          <mxGeometry relative="1" as="geometry" />
        </mxCell>
        <mxCell id="YPCTvVwg8Ye1CtPyyY5h-35" value="Cost" style="ellipse;whiteSpace=wrap;html=1;" vertex="1" parent="1">
          <mxGeometry x="80" y="405" width="80" height="53.34" as="geometry" />
        </mxCell>
        <mxCell id="YPCTvVwg8Ye1CtPyyY5h-46" style="rounded=0;orthogonalLoop=1;jettySize=auto;html=1;exitX=0.5;exitY=1;exitDx=0;exitDy=0;entryX=0.5;entryY=0;entryDx=0;entryDy=0;endArrow=none;endFill=0;shape=link;" edge="1" parent="1" source="YPCTvVwg8Ye1CtPyyY5h-36" target="YPCTvVwg8Ye1CtPyyY5h-42">
          <mxGeometry relative="1" as="geometry">
            <mxPoint x="650" y="400" as="targetPoint" />
          </mxGeometry>
        </mxCell>
        <mxCell id="YPCTvVwg8Ye1CtPyyY5h-36" value="menuItem" style="rounded=0;whiteSpace=wrap;html=1;" vertex="1" parent="1">
          <mxGeometry x="590" y="305" width="120" height="70" as="geometry" />
        </mxCell>
        <mxCell id="YPCTvVwg8Ye1CtPyyY5h-38" value="menuItem" style="rounded=0;whiteSpace=wrap;html=1;" vertex="1" parent="1">
          <mxGeometry x="595" y="312.5" width="110" height="55" as="geometry" />
        </mxCell>
        <mxCell id="YPCTvVwg8Ye1CtPyyY5h-50" style="rounded=0;orthogonalLoop=1;jettySize=auto;html=1;exitX=1;exitY=1;exitDx=0;exitDy=0;entryX=0.25;entryY=0;entryDx=0;entryDy=0;endArrow=none;endFill=0;" edge="1" parent="1" source="YPCTvVwg8Ye1CtPyyY5h-60" target="YPCTvVwg8Ye1CtPyyY5h-36">
          <mxGeometry relative="1" as="geometry">
            <mxPoint x="617.5" y="285" as="sourcePoint" />
          </mxGeometry>
        </mxCell>
        <mxCell id="YPCTvVwg8Ye1CtPyyY5h-51" style="rounded=0;orthogonalLoop=1;jettySize=auto;html=1;exitX=0;exitY=1;exitDx=0;exitDy=0;entryX=0.75;entryY=0;entryDx=0;entryDy=0;endArrow=none;endFill=0;" edge="1" parent="1" source="YPCTvVwg8Ye1CtPyyY5h-41" target="YPCTvVwg8Ye1CtPyyY5h-36">
          <mxGeometry relative="1" as="geometry" />
        </mxCell>
        <mxCell id="YPCTvVwg8Ye1CtPyyY5h-41" value="Cost" style="ellipse;whiteSpace=wrap;html=1;" vertex="1" parent="1">
          <mxGeometry x="720" y="248.34" width="65" height="43.33" as="geometry" />
        </mxCell>
        <mxCell id="YPCTvVwg8Ye1CtPyyY5h-42" value="" style="rhombus;whiteSpace=wrap;html=1;" vertex="1" parent="1">
          <mxGeometry x="610" y="405" width="80" height="80" as="geometry" />
        </mxCell>
        <mxCell id="YPCTvVwg8Ye1CtPyyY5h-59" style="rounded=0;orthogonalLoop=1;jettySize=auto;html=1;exitX=0.5;exitY=1;exitDx=0;exitDy=0;entryX=1;entryY=0;entryDx=0;entryDy=0;endArrow=none;endFill=0;shape=link;" edge="1" parent="1" source="YPCTvVwg8Ye1CtPyyY5h-43" target="YPCTvVwg8Ye1CtPyyY5h-57">
          <mxGeometry relative="1" as="geometry" />
        </mxCell>
        <mxCell id="YPCTvVwg8Ye1CtPyyY5h-43" value="Uses" style="rhombus;whiteSpace=wrap;html=1;" vertex="1" parent="1">
          <mxGeometry x="615" y="410" width="70" height="70" as="geometry" />
        </mxCell>
        <mxCell id="YPCTvVwg8Ye1CtPyyY5h-54" style="rounded=0;orthogonalLoop=1;jettySize=auto;html=1;exitX=0;exitY=0.5;exitDx=0;exitDy=0;entryX=1;entryY=0;entryDx=0;entryDy=0;endArrow=none;endFill=0;" edge="1" parent="1" source="YPCTvVwg8Ye1CtPyyY5h-52" target="YPCTvVwg8Ye1CtPyyY5h-42">
          <mxGeometry relative="1" as="geometry" />
        </mxCell>
        <mxCell id="YPCTvVwg8Ye1CtPyyY5h-52" value="Amount" style="ellipse;whiteSpace=wrap;html=1;" vertex="1" parent="1">
          <mxGeometry x="735" y="393.34" width="60" height="40" as="geometry" />
        </mxCell>
        <mxCell id="YPCTvVwg8Ye1CtPyyY5h-55" style="rounded=0;orthogonalLoop=1;jettySize=auto;html=1;exitX=0;exitY=0.5;exitDx=0;exitDy=0;entryX=1;entryY=1;entryDx=0;entryDy=0;endArrow=none;endFill=0;" edge="1" parent="1" source="YPCTvVwg8Ye1CtPyyY5h-53" target="YPCTvVwg8Ye1CtPyyY5h-43">
          <mxGeometry relative="1" as="geometry" />
        </mxCell>
        <mxCell id="YPCTvVwg8Ye1CtPyyY5h-53" value="Amount Units" style="ellipse;whiteSpace=wrap;html=1;" vertex="1" parent="1">
          <mxGeometry x="735" y="463.34000000000003" width="57.5" height="40" as="geometry" />
        </mxCell>
        <mxCell id="YPCTvVwg8Ye1CtPyyY5h-116" style="rounded=0;orthogonalLoop=1;jettySize=auto;html=1;exitX=1;exitY=0.5;exitDx=0;exitDy=0;entryX=0;entryY=0.5;entryDx=0;entryDy=0;endArrow=none;endFill=0;" edge="1" parent="1" source="YPCTvVwg8Ye1CtPyyY5h-57" target="YPCTvVwg8Ye1CtPyyY5h-113">
          <mxGeometry relative="1" as="geometry" />
        </mxCell>
        <mxCell id="YPCTvVwg8Ye1CtPyyY5h-57" value="menuItem" style="rounded=0;whiteSpace=wrap;html=1;" vertex="1" parent="1">
          <mxGeometry x="442.5" y="520" width="120" height="70" as="geometry" />
        </mxCell>
        <mxCell id="YPCTvVwg8Ye1CtPyyY5h-58" value="Ingredients" style="rounded=0;whiteSpace=wrap;html=1;" vertex="1" parent="1">
          <mxGeometry x="447.5" y="527.5" width="110" height="55" as="geometry" />
        </mxCell>
        <mxCell id="YPCTvVwg8Ye1CtPyyY5h-60" value="&lt;span style=&quot;border-bottom: 1px dotted&quot;&gt;Name&lt;/span&gt;" style="ellipse;whiteSpace=wrap;html=1;align=center;" vertex="1" parent="1">
          <mxGeometry x="525" y="229.99999999999997" width="100" height="40" as="geometry" />
        </mxCell>
        <mxCell id="YPCTvVwg8Ye1CtPyyY5h-62" style="rounded=0;orthogonalLoop=1;jettySize=auto;html=1;exitX=1;exitY=0.5;exitDx=0;exitDy=0;entryX=0;entryY=0.5;entryDx=0;entryDy=0;endArrow=none;endFill=0;" edge="1" parent="1" source="YPCTvVwg8Ye1CtPyyY5h-61" target="YPCTvVwg8Ye1CtPyyY5h-57">
          <mxGeometry relative="1" as="geometry" />
        </mxCell>
        <mxCell id="YPCTvVwg8Ye1CtPyyY5h-61" value="Total Amount" style="ellipse;whiteSpace=wrap;html=1;align=center;" vertex="1" parent="1">
          <mxGeometry x="292.5" y="560" width="100" height="40" as="geometry" />
        </mxCell>
        <mxCell id="YPCTvVwg8Ye1CtPyyY5h-64" style="rounded=0;orthogonalLoop=1;jettySize=auto;html=1;exitX=1;exitY=0;exitDx=0;exitDy=0;entryX=0.25;entryY=1;entryDx=0;entryDy=0;endArrow=none;endFill=0;" edge="1" parent="1" source="YPCTvVwg8Ye1CtPyyY5h-63" target="YPCTvVwg8Ye1CtPyyY5h-57">
          <mxGeometry relative="1" as="geometry" />
        </mxCell>
        <mxCell id="YPCTvVwg8Ye1CtPyyY5h-63" value="Amount Units" style="ellipse;whiteSpace=wrap;html=1;align=center;" vertex="1" parent="1">
          <mxGeometry x="372.5" y="620" width="100" height="40" as="geometry" />
        </mxCell>
        <mxCell id="YPCTvVwg8Ye1CtPyyY5h-70" style="rounded=0;orthogonalLoop=1;jettySize=auto;html=1;exitX=0.5;exitY=1;exitDx=0;exitDy=0;entryX=0.454;entryY=0;entryDx=0;entryDy=0;endArrow=none;endFill=0;entryPerimeter=0;shape=link;" edge="1" parent="1" source="YPCTvVwg8Ye1CtPyyY5h-66" target="YPCTvVwg8Ye1CtPyyY5h-57">
          <mxGeometry relative="1" as="geometry" />
        </mxCell>
        <mxCell id="YPCTvVwg8Ye1CtPyyY5h-66" value="" style="rhombus;whiteSpace=wrap;html=1;" vertex="1" parent="1">
          <mxGeometry x="455" y="423.34" width="80" height="80" as="geometry" />
        </mxCell>
        <mxCell id="YPCTvVwg8Ye1CtPyyY5h-67" value="Has" style="rhombus;whiteSpace=wrap;html=1;" vertex="1" parent="1">
          <mxGeometry x="460" y="428.34" width="70" height="70" as="geometry" />
        </mxCell>
        <mxCell id="YPCTvVwg8Ye1CtPyyY5h-75" style="rounded=0;orthogonalLoop=1;jettySize=auto;html=1;exitX=1;exitY=0.5;exitDx=0;exitDy=0;entryX=0;entryY=0.5;entryDx=0;entryDy=0;endArrow=none;endFill=0;shape=link;" edge="1" parent="1" source="YPCTvVwg8Ye1CtPyyY5h-71" target="YPCTvVwg8Ye1CtPyyY5h-36">
          <mxGeometry relative="1" as="geometry" />
        </mxCell>
        <mxCell id="YPCTvVwg8Ye1CtPyyY5h-71" value="" style="rhombus;whiteSpace=wrap;html=1;" vertex="1" parent="1">
          <mxGeometry x="495" y="300" width="80" height="80" as="geometry" />
        </mxCell>
        <mxCell id="YPCTvVwg8Ye1CtPyyY5h-72" value="Sells" style="rhombus;whiteSpace=wrap;html=1;" vertex="1" parent="1">
          <mxGeometry x="500" y="305" width="70" height="70" as="geometry" />
        </mxCell>
        <mxCell id="YPCTvVwg8Ye1CtPyyY5h-95" style="rounded=0;orthogonalLoop=1;jettySize=auto;html=1;exitX=0.5;exitY=1;exitDx=0;exitDy=0;entryX=0.5;entryY=0;entryDx=0;entryDy=0;endArrow=none;endFill=0;shape=link;" edge="1" parent="1" source="YPCTvVwg8Ye1CtPyyY5h-76" target="YPCTvVwg8Ye1CtPyyY5h-93">
          <mxGeometry relative="1" as="geometry" />
        </mxCell>
        <mxCell id="YPCTvVwg8Ye1CtPyyY5h-76" value="Transactions" style="rounded=0;whiteSpace=wrap;html=1;" vertex="1" parent="1">
          <mxGeometry x="585" y="90" width="120" height="60" as="geometry" />
        </mxCell>
        <mxCell id="YPCTvVwg8Ye1CtPyyY5h-77" value="Sale" style="rounded=0;whiteSpace=wrap;html=1;" vertex="1" parent="1">
          <mxGeometry x="590" y="95" width="110" height="50" as="geometry" />
        </mxCell>
        <mxCell id="YPCTvVwg8Ye1CtPyyY5h-87" style="rounded=0;orthogonalLoop=1;jettySize=auto;html=1;exitX=1;exitY=0;exitDx=0;exitDy=0;entryX=0;entryY=0.5;entryDx=0;entryDy=0;endArrow=none;endFill=0;shape=link;" edge="1" parent="1" source="YPCTvVwg8Ye1CtPyyY5h-80" target="YPCTvVwg8Ye1CtPyyY5h-76">
          <mxGeometry relative="1" as="geometry" />
        </mxCell>
        <mxCell id="YPCTvVwg8Ye1CtPyyY5h-80" value="" style="rhombus;whiteSpace=wrap;html=1;" vertex="1" parent="1">
          <mxGeometry x="460" y="120" width="80" height="80" as="geometry" />
        </mxCell>
        <mxCell id="YPCTvVwg8Ye1CtPyyY5h-81" value="Makes" style="rhombus;whiteSpace=wrap;html=1;" vertex="1" parent="1">
          <mxGeometry x="465" y="125" width="70" height="70" as="geometry" />
        </mxCell>
        <mxCell id="YPCTvVwg8Ye1CtPyyY5h-90" style="rounded=0;orthogonalLoop=1;jettySize=auto;html=1;exitX=1;exitY=0.5;exitDx=0;exitDy=0;entryX=0;entryY=0.5;entryDx=0;entryDy=0;endArrow=none;endFill=0;" edge="1" parent="1" source="YPCTvVwg8Ye1CtPyyY5h-82" target="YPCTvVwg8Ye1CtPyyY5h-89">
          <mxGeometry relative="1" as="geometry" />
        </mxCell>
        <mxCell id="YPCTvVwg8Ye1CtPyyY5h-82" value="Start Date" style="ellipse;whiteSpace=wrap;html=1;" vertex="1" parent="1">
          <mxGeometry x="410" y="20" width="80" height="50" as="geometry" />
        </mxCell>
        <mxCell id="YPCTvVwg8Ye1CtPyyY5h-86" style="rounded=0;orthogonalLoop=1;jettySize=auto;html=1;exitX=0;exitY=0.5;exitDx=0;exitDy=0;entryX=1;entryY=0.5;entryDx=0;entryDy=0;endArrow=none;endFill=0;" edge="1" parent="1" source="YPCTvVwg8Ye1CtPyyY5h-83">
          <mxGeometry relative="1" as="geometry">
            <mxPoint x="630" y="60" as="targetPoint" />
          </mxGeometry>
        </mxCell>
        <mxCell id="YPCTvVwg8Ye1CtPyyY5h-83" value="End Date" style="ellipse;whiteSpace=wrap;html=1;" vertex="1" parent="1">
          <mxGeometry x="680" y="10" width="80" height="50" as="geometry" />
        </mxCell>
        <mxCell id="YPCTvVwg8Ye1CtPyyY5h-91" style="rounded=0;orthogonalLoop=1;jettySize=auto;html=1;exitX=1;exitY=1;exitDx=0;exitDy=0;entryX=0.5;entryY=0;entryDx=0;entryDy=0;endArrow=none;endFill=0;" edge="1" parent="1" source="YPCTvVwg8Ye1CtPyyY5h-89" target="YPCTvVwg8Ye1CtPyyY5h-76">
          <mxGeometry relative="1" as="geometry" />
        </mxCell>
        <mxCell id="YPCTvVwg8Ye1CtPyyY5h-89" value="&lt;span style=&quot;border-bottom: 1px dotted&quot;&gt;Date Range&lt;/span&gt;" style="ellipse;whiteSpace=wrap;html=1;align=center;" vertex="1" parent="1">
          <mxGeometry x="535" y="39.99999999999997" width="100" height="40" as="geometry" />
        </mxCell>
        <mxCell id="YPCTvVwg8Ye1CtPyyY5h-99" style="rounded=0;orthogonalLoop=1;jettySize=auto;html=1;exitX=0.5;exitY=1;exitDx=0;exitDy=0;entryX=0.5;entryY=0;entryDx=0;entryDy=0;endArrow=none;endFill=0;" edge="1" parent="1" source="YPCTvVwg8Ye1CtPyyY5h-93" target="YPCTvVwg8Ye1CtPyyY5h-36">
          <mxGeometry relative="1" as="geometry" />
        </mxCell>
        <mxCell id="YPCTvVwg8Ye1CtPyyY5h-101" style="rounded=0;orthogonalLoop=1;jettySize=auto;html=1;exitX=1;exitY=0.5;exitDx=0;exitDy=0;entryX=0;entryY=0.5;entryDx=0;entryDy=0;endArrow=none;endFill=0;" edge="1" parent="1" source="YPCTvVwg8Ye1CtPyyY5h-93" target="YPCTvVwg8Ye1CtPyyY5h-100">
          <mxGeometry relative="1" as="geometry" />
        </mxCell>
        <mxCell id="YPCTvVwg8Ye1CtPyyY5h-93" value="" style="rhombus;whiteSpace=wrap;html=1;" vertex="1" parent="1">
          <mxGeometry x="610" y="165" width="80" height="80" as="geometry" />
        </mxCell>
        <mxCell id="YPCTvVwg8Ye1CtPyyY5h-94" value="Sold" style="rhombus;whiteSpace=wrap;html=1;" vertex="1" parent="1">
          <mxGeometry x="615" y="170" width="70" height="70" as="geometry" />
        </mxCell>
        <mxCell id="YPCTvVwg8Ye1CtPyyY5h-98" style="rounded=0;orthogonalLoop=1;jettySize=auto;html=1;exitX=0;exitY=0.5;exitDx=0;exitDy=0;entryX=1;entryY=0.5;entryDx=0;entryDy=0;endArrow=none;endFill=0;" edge="1" parent="1" source="YPCTvVwg8Ye1CtPyyY5h-96" target="YPCTvVwg8Ye1CtPyyY5h-76">
          <mxGeometry relative="1" as="geometry" />
        </mxCell>
        <mxCell id="YPCTvVwg8Ye1CtPyyY5h-96" value="Revenue" style="ellipse;whiteSpace=wrap;html=1;" vertex="1" parent="1">
          <mxGeometry x="735" y="90" width="80" height="50" as="geometry" />
        </mxCell>
        <mxCell id="YPCTvVwg8Ye1CtPyyY5h-100" value="Count" style="ellipse;whiteSpace=wrap;html=1;" vertex="1" parent="1">
          <mxGeometry x="722.5" y="185" width="60" height="40" as="geometry" />
        </mxCell>
        <mxCell id="YPCTvVwg8Ye1CtPyyY5h-112" style="rounded=0;orthogonalLoop=1;jettySize=auto;html=1;exitX=1;exitY=1;exitDx=0;exitDy=0;entryX=0;entryY=0;entryDx=0;entryDy=0;endArrow=none;endFill=0;" edge="1" parent="1" source="YPCTvVwg8Ye1CtPyyY5h-104" target="YPCTvVwg8Ye1CtPyyY5h-57">
          <mxGeometry relative="1" as="geometry" />
        </mxCell>
        <mxCell id="Vfr4PyLN1I8eH3ngabEP-2" style="rounded=0;orthogonalLoop=1;jettySize=auto;html=1;exitX=1;exitY=0;exitDx=0;exitDy=0;entryX=0;entryY=1;entryDx=0;entryDy=0;endArrow=none;endFill=0;" edge="1" parent="1" source="YPCTvVwg8Ye1CtPyyY5h-104" target="Vfr4PyLN1I8eH3ngabEP-1">
          <mxGeometry relative="1" as="geometry" />
        </mxCell>
        <mxCell id="YPCTvVwg8Ye1CtPyyY5h-104" value="" style="rhombus;whiteSpace=wrap;html=1;" vertex="1" parent="1">
          <mxGeometry x="212.5" y="472.5" width="80" height="80" as="geometry" />
        </mxCell>
        <mxCell id="YPCTvVwg8Ye1CtPyyY5h-105" value="Includes" style="rhombus;whiteSpace=wrap;html=1;" vertex="1" parent="1">
          <mxGeometry x="217.5" y="479.16" width="70" height="66.67" as="geometry" />
        </mxCell>
        <mxCell id="YPCTvVwg8Ye1CtPyyY5h-113" value="&lt;span style=&quot;border-bottom: 1px dotted&quot;&gt;Name&lt;/span&gt;" style="ellipse;whiteSpace=wrap;html=1;align=center;" vertex="1" parent="1">
          <mxGeometry x="610" y="535" width="100" height="40" as="geometry" />
        </mxCell>
        <mxCell id="YPCTvVwg8Ye1CtPyyY5h-121" style="rounded=0;orthogonalLoop=1;jettySize=auto;html=1;exitX=1;exitY=0;exitDx=0;exitDy=0;entryX=0;entryY=1;entryDx=0;entryDy=0;endArrow=none;endFill=0;" edge="1" parent="1" source="YPCTvVwg8Ye1CtPyyY5h-117" target="YPCTvVwg8Ye1CtPyyY5h-104">
          <mxGeometry relative="1" as="geometry" />
        </mxCell>
        <mxCell id="YPCTvVwg8Ye1CtPyyY5h-117" value="Amount" style="ellipse;whiteSpace=wrap;html=1;" vertex="1" parent="1">
          <mxGeometry x="162.5" y="542.5" width="70" height="40" as="geometry" />
        </mxCell>
        <mxCell id="YPCTvVwg8Ye1CtPyyY5h-120" style="rounded=0;orthogonalLoop=1;jettySize=auto;html=1;exitX=1;exitY=0.5;exitDx=0;exitDy=0;entryX=0;entryY=0.5;entryDx=0;entryDy=0;endArrow=none;endFill=0;" edge="1" parent="1" source="YPCTvVwg8Ye1CtPyyY5h-118" target="YPCTvVwg8Ye1CtPyyY5h-104">
          <mxGeometry relative="1" as="geometry">
            <mxPoint x="245.5" y="452.5" as="targetPoint" />
          </mxGeometry>
        </mxCell>
        <mxCell id="YPCTvVwg8Ye1CtPyyY5h-118" value="Amount Units" style="ellipse;whiteSpace=wrap;html=1;" vertex="1" parent="1">
          <mxGeometry x="107.5" y="492.5" width="80" height="40" as="geometry" />
        </mxCell>
        <mxCell id="YPCTvVwg8Ye1CtPyyY5h-123" style="rounded=0;orthogonalLoop=1;jettySize=auto;html=1;exitX=0.5;exitY=1;exitDx=0;exitDy=0;entryX=0.5;entryY=0;entryDx=0;entryDy=0;endArrow=none;endFill=0;" edge="1" parent="1" source="YPCTvVwg8Ye1CtPyyY5h-122" target="YPCTvVwg8Ye1CtPyyY5h-14">
          <mxGeometry relative="1" as="geometry" />
        </mxCell>
        <mxCell id="YPCTvVwg8Ye1CtPyyY5h-122" value="&lt;span style=&quot;border-bottom: 1px dotted&quot;&gt;Name&lt;/span&gt;" style="ellipse;whiteSpace=wrap;html=1;align=center;" vertex="1" parent="1">
          <mxGeometry x="50" y="227.49999999999997" width="100" height="40" as="geometry" />
        </mxCell>
        <mxCell id="G4DBP3oBoOFOcDz8QZ_r-2" value="M" style="text;html=1;align=center;verticalAlign=middle;whiteSpace=wrap;rounded=0;" vertex="1" parent="1">
          <mxGeometry x="550" y="315" width="60" height="30" as="geometry" />
        </mxCell>
        <mxCell id="G4DBP3oBoOFOcDz8QZ_r-3" value="M" style="text;html=1;align=center;verticalAlign=middle;whiteSpace=wrap;rounded=0;" vertex="1" parent="1">
          <mxGeometry x="480" y="497.5" width="60" height="30" as="geometry" />
        </mxCell>
        <mxCell id="G4DBP3oBoOFOcDz8QZ_r-4" value="M" style="text;html=1;align=center;verticalAlign=middle;whiteSpace=wrap;rounded=0;" vertex="1" parent="1">
          <mxGeometry x="190" y="310" width="60" height="30" as="geometry" />
        </mxCell>
        <mxCell id="G4DBP3oBoOFOcDz8QZ_r-5" value="M" style="text;html=1;align=center;verticalAlign=middle;whiteSpace=wrap;rounded=0;" vertex="1" parent="1">
          <mxGeometry x="540" y="95" width="60" height="30" as="geometry" />
        </mxCell>
        <mxCell id="G4DBP3oBoOFOcDz8QZ_r-7" value="M" style="text;html=1;align=center;verticalAlign=middle;whiteSpace=wrap;rounded=0;" vertex="1" parent="1">
          <mxGeometry x="187.5" y="345" width="60" height="30" as="geometry" />
        </mxCell>
        <mxCell id="G4DBP3oBoOFOcDz8QZ_r-8" value="M" style="text;html=1;align=center;verticalAlign=middle;whiteSpace=wrap;rounded=0;" vertex="1" parent="1">
          <mxGeometry x="405" y="490" width="60" height="30" as="geometry" />
        </mxCell>
        <mxCell id="G4DBP3oBoOFOcDz8QZ_r-9" value="M" style="text;html=1;align=center;verticalAlign=middle;whiteSpace=wrap;rounded=0;" vertex="1" parent="1">
          <mxGeometry x="525" y="497.5" width="60" height="30" as="geometry" />
        </mxCell>
        <mxCell id="G4DBP3oBoOFOcDz8QZ_r-10" value="M" style="text;html=1;align=center;verticalAlign=middle;whiteSpace=wrap;rounded=0;" vertex="1" parent="1">
          <mxGeometry x="630" y="370" width="60" height="30" as="geometry" />
        </mxCell>
        <mxCell id="G4DBP3oBoOFOcDz8QZ_r-11" value="M" style="text;html=1;align=center;verticalAlign=middle;whiteSpace=wrap;rounded=0;" vertex="1" parent="1">
          <mxGeometry x="600" y="145" width="60" height="30" as="geometry" />
        </mxCell>
        <mxCell id="G4DBP3oBoOFOcDz8QZ_r-12" value="M" style="text;html=1;align=center;verticalAlign=middle;whiteSpace=wrap;rounded=0;" vertex="1" parent="1">
          <mxGeometry x="630" y="285" width="60" height="30" as="geometry" />
        </mxCell>
        <mxCell id="G4DBP3oBoOFOcDz8QZ_r-13" value="1" style="text;html=1;align=center;verticalAlign=middle;whiteSpace=wrap;rounded=0;" vertex="1" parent="1">
          <mxGeometry x="320" y="315" width="60" height="30" as="geometry" />
        </mxCell>
        <mxCell id="G4DBP3oBoOFOcDz8QZ_r-14" value="1" style="text;html=1;align=center;verticalAlign=middle;whiteSpace=wrap;rounded=0;" vertex="1" parent="1">
          <mxGeometry x="455" y="315" width="60" height="30" as="geometry" />
        </mxCell>
        <mxCell id="G4DBP3oBoOFOcDz8QZ_r-15" value="1" style="text;html=1;align=center;verticalAlign=middle;whiteSpace=wrap;rounded=0;" vertex="1" parent="1">
          <mxGeometry x="447.5" y="370" width="60" height="30" as="geometry" />
        </mxCell>
        <mxCell id="G4DBP3oBoOFOcDz8QZ_r-17" value="1" style="text;html=1;align=center;verticalAlign=middle;whiteSpace=wrap;rounded=0;" vertex="1" parent="1">
          <mxGeometry x="410" y="285" width="60" height="30" as="geometry" />
        </mxCell>
        <mxCell id="Vfr4PyLN1I8eH3ngabEP-1" value="Price" style="ellipse;whiteSpace=wrap;html=1;" vertex="1" parent="1">
          <mxGeometry x="280" y="432.50000000000006" width="80" height="40" as="geometry" />
        </mxCell>
        <mxCell id="4CRClZlHs79rL-Ye6-aN-6" style="rounded=0;orthogonalLoop=1;jettySize=auto;html=1;exitX=0;exitY=0.5;exitDx=0;exitDy=0;entryX=1;entryY=1;entryDx=0;entryDy=0;endArrow=none;endFill=0;shape=link;" edge="1" parent="1" source="4CRClZlHs79rL-Ye6-aN-1" target="4CRClZlHs79rL-Ye6-aN-3">
          <mxGeometry relative="1" as="geometry" />
        </mxCell>
        <mxCell id="4CRClZlHs79rL-Ye6-aN-1" value="" style="rhombus;whiteSpace=wrap;html=1;" vertex="1" parent="1">
          <mxGeometry x="230" y="192.5" width="80" height="80" as="geometry" />
        </mxCell>
        <mxCell id="4CRClZlHs79rL-Ye6-aN-2" value="possess" style="rhombus;whiteSpace=wrap;html=1;" vertex="1" parent="1">
          <mxGeometry x="235" y="197.5" width="70" height="70" as="geometry" />
        </mxCell>
        <mxCell id="4CRClZlHs79rL-Ye6-aN-3" value="Transactions" style="rounded=0;whiteSpace=wrap;html=1;" vertex="1" parent="1">
          <mxGeometry x="90" y="55" width="120" height="60" as="geometry" />
        </mxCell>
        <mxCell id="4CRClZlHs79rL-Ye6-aN-4" value="Code" style="rounded=0;whiteSpace=wrap;html=1;" vertex="1" parent="1">
          <mxGeometry x="95" y="60" width="110" height="50" as="geometry" />
        </mxCell>
        <mxCell id="4CRClZlHs79rL-Ye6-aN-7" value="1" style="text;html=1;align=center;verticalAlign=middle;whiteSpace=wrap;rounded=0;" vertex="1" parent="1">
          <mxGeometry x="332.5" y="282.5" width="60" height="30" as="geometry" />
        </mxCell>
        <mxCell id="4CRClZlHs79rL-Ye6-aN-8" value="1" style="text;html=1;align=center;verticalAlign=middle;whiteSpace=wrap;rounded=0;" vertex="1" parent="1">
          <mxGeometry x="190" y="112.5" width="60" height="30" as="geometry" />
        </mxCell>
        <mxCell id="4CRClZlHs79rL-Ye6-aN-10" style="edgeStyle=orthogonalEdgeStyle;rounded=0;orthogonalLoop=1;jettySize=auto;html=1;exitX=0;exitY=0.5;exitDx=0;exitDy=0;entryX=1;entryY=0.5;entryDx=0;entryDy=0;endArrow=none;endFill=0;" edge="1" parent="1" source="4CRClZlHs79rL-Ye6-aN-9" target="4CRClZlHs79rL-Ye6-aN-3">
          <mxGeometry relative="1" as="geometry" />
        </mxCell>
        <mxCell id="4CRClZlHs79rL-Ye6-aN-9" value="ExpireAt" style="ellipse;whiteSpace=wrap;html=1;" vertex="1" parent="1">
          <mxGeometry x="260" y="60" width="80" height="50" as="geometry" />
        </mxCell>
        <mxCell id="4CRClZlHs79rL-Ye6-aN-14" style="rounded=0;orthogonalLoop=1;jettySize=auto;html=1;exitX=0;exitY=1;exitDx=0;exitDy=0;entryX=1;entryY=0.25;entryDx=0;entryDy=0;endArrow=none;endFill=0;" edge="1" parent="1" source="4CRClZlHs79rL-Ye6-aN-11" target="4CRClZlHs79rL-Ye6-aN-3">
          <mxGeometry relative="1" as="geometry" />
        </mxCell>
        <mxCell id="4CRClZlHs79rL-Ye6-aN-11" value="Code" style="ellipse;whiteSpace=wrap;html=1;" vertex="1" parent="1">
          <mxGeometry x="217.5" y="5" width="80" height="50" as="geometry" />
        </mxCell>
        <mxCell id="4CRClZlHs79rL-Ye6-aN-13" style="rounded=0;orthogonalLoop=1;jettySize=auto;html=1;exitX=1;exitY=1;exitDx=0;exitDy=0;entryX=0;entryY=0.25;entryDx=0;entryDy=0;endArrow=none;endFill=0;" edge="1" parent="1" source="4CRClZlHs79rL-Ye6-aN-12" target="4CRClZlHs79rL-Ye6-aN-3">
          <mxGeometry relative="1" as="geometry" />
        </mxCell>
        <mxCell id="4CRClZlHs79rL-Ye6-aN-12" value="Used" style="ellipse;whiteSpace=wrap;html=1;" vertex="1" parent="1">
          <mxGeometry y="10" width="80" height="50" as="geometry" />
        </mxCell>
      </root>
    </mxGraphModel>
  </diagram>
</mxfile>
